HIERARCHY
ROOT mixamorigHips
{
	OFFSET -0.000006 0.013797 -0.952298
	CHANNELS 6 Xposition Yposition Zposition Xrotation Yrotation Zrotation
	JOINT mixamorigSpine
	{
		OFFSET 0.000000 -0.003582 -0.100588
		CHANNELS 3 Xrotation Yrotation Zrotation
		JOINT mixamorigSpine1
		{
			OFFSET 0.000000 -0.004179 -0.117353
			CHANNELS 3 Xrotation Yrotation Zrotation
			JOINT mixamorigSpine2
			{
				OFFSET 0.000000 -0.004775 -0.134117
				CHANNELS 3 Xrotation Yrotation Zrotation
				JOINT mixamorigNeck
				{
					OFFSET 0.000000 -0.005372 -0.150883
					CHANNELS 3 Xrotation Yrotation Zrotation
					JOINT mixamorigHead
					{
						OFFSET 0.000000 0.026878 -0.080856
						CHANNELS 3 Xrotation Yrotation Zrotation
						JOINT mixamorigHeadTop_End
						{
							OFFSET 0.000000 0.071467 -0.214992
							CHANNELS 3 Xrotation Yrotation Zrotation
							End Site
							{
								OFFSET 0.000000 0.000000 -0.226559
							}
						}
					}
				}
				JOINT mixamorigLeftShoulder
				{
					OFFSET 0.059491 -0.005358 -0.132371
					CHANNELS 3 Xrotation Yrotation Zrotation
					JOINT mixamorigLeftArm
					{
						OFFSET 0.119085 0.000028 0.037071
						CHANNELS 3 Xrotation Yrotation Zrotation
						JOINT mixamorigLeftForeArm
						{
							OFFSET 0.236648 -0.018909 0.018836
							CHANNELS 3 Xrotation Yrotation Zrotation
							JOINT mixamorigLeftHand
							{
								OFFSET 0.245025 0.010267 -0.012586
								CHANNELS 3 Xrotation Yrotation Zrotation
								JOINT mixamorigLeftHandThumb1
								{
									OFFSET 0.024137 0.029259 0.012050
									CHANNELS 3 Xrotation Yrotation Zrotation
									JOINT mixamorigLeftHandThumb2
									{
										OFFSET 0.019309 0.023407 0.009640
										CHANNELS 3 Xrotation Yrotation Zrotation
										JOINT mixamorigLeftHandThumb3
										{
											OFFSET 0.022790 0.016193 0.012427
											CHANNELS 3 Xrotation Yrotation Zrotation
											JOINT mixamorigLeftHandThumb4
											{
												OFFSET 0.021035 0.009885 0.005302
												CHANNELS 3 Xrotation Yrotation Zrotation
												End Site
												{
													OFFSET 0.018375 0.014263 0.005217
												}
											}
										}
									}
								}
								JOINT mixamorigLeftHandIndex1
								{
									OFFSET 0.082146 0.035642 0.003320
									CHANNELS 3 Xrotation Yrotation Zrotation
									JOINT mixamorigLeftHandIndex2
									{
										OFFSET 0.030257 0.002984 0.001789
										CHANNELS 3 Xrotation Yrotation Zrotation
										JOINT mixamorigLeftHandIndex3
										{
											OFFSET 0.027116 0.002965 0.006614
											CHANNELS 3 Xrotation Yrotation Zrotation
											JOINT mixamorigLeftHandIndex4
											{
												OFFSET 0.023223 0.002618 0.007017
												CHANNELS 3 Xrotation Yrotation Zrotation
												End Site
												{
													OFFSET 0.023231 0.002536 0.007019
												}
											}
										}
									}
								}
								JOINT mixamorigLeftHandMiddle1
								{
									OFFSET 0.084081 0.011294 0.001498
									CHANNELS 3 Xrotation Yrotation Zrotation
									JOINT mixamorigLeftHandMiddle2
									{
										OFFSET 0.031877 0.001103 0.001606
										CHANNELS 3 Xrotation Yrotation Zrotation
										JOINT mixamorigLeftHandMiddle3
										{
											OFFSET 0.029664 0.001331 0.008371
											CHANNELS 3 Xrotation Yrotation Zrotation
											JOINT mixamorigLeftHandMiddle4
											{
												OFFSET 0.026108 0.001133 0.006502
												CHANNELS 3 Xrotation Yrotation Zrotation
												End Site
												{
													OFFSET 0.026109 0.001100 0.006503
												}
											}
										}
									}
								}
								JOINT mixamorigLeftHandRing1
								{
									OFFSET 0.084656 -0.009052 0.001316
									CHANNELS 3 Xrotation Yrotation Zrotation
									JOINT mixamorigLeftHandRing2
									{
										OFFSET 0.027244 -0.000127 0.002991
										CHANNELS 3 Xrotation Yrotation Zrotation
										JOINT mixamorigLeftHandRing3
										{
											OFFSET 0.026257 0.000074 0.008425
											CHANNELS 3 Xrotation Yrotation Zrotation
											JOINT mixamorigLeftHandRing4
											{
												OFFSET 0.022793 -0.000137 0.001611
												CHANNELS 3 Xrotation Yrotation Zrotation
												End Site
												{
													OFFSET 0.022793 -0.000107 0.001611
												}
											}
										}
									}
								}
								JOINT mixamorigLeftHandPinky1
								{
									OFFSET 0.081498 -0.028806 0.004640
									CHANNELS 3 Xrotation Yrotation Zrotation
									JOINT mixamorigLeftHandPinky2
									{
										OFFSET 0.025161 -0.000778 0.002251
										CHANNELS 3 Xrotation Yrotation Zrotation
										JOINT mixamorigLeftHandPinky3
										{
											OFFSET 0.019282 -0.000485 0.005416
											CHANNELS 3 Xrotation Yrotation Zrotation
											JOINT mixamorigLeftHandPinky4
											{
												OFFSET 0.017828 -0.000447 0.005088
												CHANNELS 3 Xrotation Yrotation Zrotation
												End Site
												{
													OFFSET 0.017828 -0.000459 0.005088
												}
											}
										}
									}
								}
							}
						}
					}
				}
				JOINT mixamorigRightShoulder
				{
					OFFSET -0.059491 -0.005387 -0.132371
					CHANNELS 3 Xrotation Yrotation Zrotation
					JOINT mixamorigRightArm
					{
						OFFSET -0.119085 -0.000028 0.037071
						CHANNELS 3 Xrotation Yrotation Zrotation
						JOINT mixamorigRightForeArm
						{
							OFFSET -0.236648 -0.019526 0.018836
							CHANNELS 3 Xrotation Yrotation Zrotation
							JOINT mixamorigRightHand
							{
								OFFSET -0.245025 0.011096 -0.012586
								CHANNELS 3 Xrotation Yrotation Zrotation
								JOINT mixamorigRightHandThumb1
								{
									OFFSET -0.023201 0.029249 0.012102
									CHANNELS 3 Xrotation Yrotation Zrotation
									JOINT mixamorigRightHandThumb2
									{
										OFFSET -0.018561 0.023399 0.009682
										CHANNELS 3 Xrotation Yrotation Zrotation
										JOINT mixamorigRightHandThumb3
										{
											OFFSET -0.023514 0.015570 0.012040
											CHANNELS 3 Xrotation Yrotation Zrotation
											JOINT mixamorigRightHandThumb4
											{
												OFFSET -0.019592 0.012930 0.010370
												CHANNELS 3 Xrotation Yrotation Zrotation
												End Site
												{
													OFFSET -0.017957 0.015176 0.010286
												}
											}
										}
									}
								}
								JOINT mixamorigRightHandIndex1
								{
									OFFSET -0.082646 0.035881 0.002744
									CHANNELS 3 Xrotation Yrotation Zrotation
									JOINT mixamorigRightHandIndex2
									{
										OFFSET -0.030501 0.002419 0.002298
										CHANNELS 3 Xrotation Yrotation Zrotation
										JOINT mixamorigRightHandIndex3
										{
											OFFSET -0.026764 0.002375 0.007124
											CHANNELS 3 Xrotation Yrotation Zrotation
											JOINT mixamorigRightHandIndex4
											{
												OFFSET -0.024278 0.002088 0.005123
												CHANNELS 3 Xrotation Yrotation Zrotation
												End Site
												{
													OFFSET -0.024279 0.002081 0.005124
												}
											}
										}
									}
								}
								JOINT mixamorigRightHandMiddle1
								{
									OFFSET -0.085786 0.011535 0.000944
									CHANNELS 3 Xrotation Yrotation Zrotation
									JOINT mixamorigRightHandMiddle2
									{
										OFFSET -0.032178 0.001536 0.002411
										CHANNELS 3 Xrotation Yrotation Zrotation
										JOINT mixamorigRightHandMiddle3
										{
											OFFSET -0.029035 0.001648 0.008346
											CHANNELS 3 Xrotation Yrotation Zrotation
											JOINT mixamorigRightHandMiddle4
											{
												OFFSET -0.025822 0.001463 0.007351
												CHANNELS 3 Xrotation Yrotation Zrotation
												End Site
												{
													OFFSET -0.025822 0.001456 0.007351
												}
											}
										}
									}
								}
								JOINT mixamorigRightHandRing1
								{
									OFFSET -0.088290 -0.009220 0.001245
									CHANNELS 3 Xrotation Yrotation Zrotation
									JOINT mixamorigRightHandRing2
									{
										OFFSET -0.026564 0.000001 0.003076
										CHANNELS 3 Xrotation Yrotation Zrotation
										JOINT mixamorigRightHandRing3
										{
											OFFSET -0.024770 0.000192 0.008867
											CHANNELS 3 Xrotation Yrotation Zrotation
											JOINT mixamorigRightHandRing4
											{
												OFFSET -0.021390 0.000021 0.003051
												CHANNELS 3 Xrotation Yrotation Zrotation
												End Site
												{
													OFFSET -0.021390 0.000012 0.003051
												}
											}
										}
									}
								}
								JOINT mixamorigRightHandPinky1
								{
									OFFSET -0.079619 -0.028707 0.006167
									CHANNELS 3 Xrotation Yrotation Zrotation
									JOINT mixamorigRightHandPinky2
									{
										OFFSET -0.025095 -0.000294 0.000364
										CHANNELS 3 Xrotation Yrotation Zrotation
										JOINT mixamorigRightHandPinky3
										{
											OFFSET -0.020337 -0.000091 0.005203
											CHANNELS 3 Xrotation Yrotation Zrotation
											JOINT mixamorigRightHandPinky4
											{
												OFFSET -0.017715 -0.000059 0.005179
												CHANNELS 3 Xrotation Yrotation Zrotation
												End Site
												{
													OFFSET -0.017715 -0.000044 0.005178
												}
											}
										}
									}
								}
							}
						}
					}
				}
			}
		}
	}
	JOINT mixamorigLeftUpLeg
	{
		OFFSET 0.093921 -0.000932 0.055722
		CHANNELS 3 Xrotation Yrotation Zrotation
		JOINT mixamorigLeftLeg
		{
			OFFSET 0.031469 -0.027343 0.421125
			CHANNELS 3 Xrotation Yrotation Zrotation
			JOINT mixamorigLeftFoot
			{
				OFFSET 0.023493 -0.015151 0.389996
				CHANNELS 3 Xrotation Yrotation Zrotation
				JOINT mixamorigLeftToeBase
				{
					OFFSET 0.017713 0.125047 0.075344
					CHANNELS 3 Xrotation Yrotation Zrotation
					JOINT mixamorigLeftToe_End
					{
						OFFSET 0.006066 0.059176 -0.002505
						CHANNELS 3 Xrotation Yrotation Zrotation
						End Site
						{
							OFFSET 0.006066 0.059176 -0.002505
						}
					}
				}
			}
		}
	}
	JOINT mixamorigRightUpLeg
	{
		OFFSET -0.093921 -0.000152 0.055722
		CHANNELS 3 Xrotation Yrotation Zrotation
		JOINT mixamorigRightLeg
		{
			OFFSET -0.031469 -0.028501 0.421125
			CHANNELS 3 Xrotation Yrotation Zrotation
			JOINT mixamorigRightFoot
			{
				OFFSET -0.023493 -0.013412 0.389996
				CHANNELS 3 Xrotation Yrotation Zrotation
				JOINT mixamorigRightToeBase
				{
					OFFSET -0.017713 0.123797 0.075342
					CHANNELS 3 Xrotation Yrotation Zrotation
					JOINT mixamorigRightToe_End
					{
						OFFSET -0.006066 0.060006 -0.002506
						CHANNELS 3 Xrotation Yrotation Zrotation
						End Site
						{
							OFFSET -0.006066 0.060006 -0.002506
						}
					}
				}
			}
		}
	}
}
MOTION
Frames: 4
Frame Time: 0.033333
-0.000006 0.013797 -0.952298 -19.123485 -1.536476 -5.815909 -13.463981 -5.548968 -1.330690 2.049750 0.419424 -0.273402 2.046422 0.427383 -0.290586 5.900416 -3.970376 -3.149796 17.140512 -2.413793 -10.483048 0.000000 0.000001 -0.000001 0.138672 0.231795 -1.912877 2.236121 -66.043722 41.678955 1.866027 -2.396761 136.631131 -70.484868 -48.887912 -27.370523 -3.769397 2.240261 -8.113538 0.787503 0.662708 -15.829440 3.537103 -1.664414 -13.489173 -0.000003 0.000002 -0.000006 9.978418 -86.947919 3.854603 7.793772 -71.009877 -2.671813 15.976854 -76.446783 4.911280 0.000002 -0.000000 0.000000 6.976489 -82.216940 2.057486 -6.094500 -76.760336 -14.157579 -10.066276 -86.588555 -18.178728 0.000003 0.000000 -0.000000 6.838554 -80.257680 -0.051899 -16.845381 -77.601372 -23.304669 -157.207199 -78.325194 -162.857501 0.000001 0.000003 -0.000000 179.491743 -86.369818 172.898931 -11.450355 -67.833873 -15.973693 -20.362524 -78.173667 -24.912697 0.000002 0.000003 -0.000003 1.178728 13.768814 -2.286179 15.038343 55.091623 -64.962537 1.917770 2.450994 -134.942613 -64.719225 49.073273 28.942022 -21.237362 -7.795369 -8.196537 9.659973 0.298611 30.204200 15.021843 -12.945238 37.642395 0.000002 -0.000000 -0.000006 156.314944 83.258701 -156.687408 9.247533 69.185547 -2.942569 154.217994 82.077625 -146.668777 -0.000002 -0.000000 0.000000 19.217885 80.339028 -21.371479 16.212941 85.815351 -10.592137 29.741741 85.894601 -24.299569 -0.000002 0.000005 -0.000001 13.599086 75.385255 -12.634008 11.411637 101.383606 -7.731455 18.308529 93.855064 -15.762279 0.000002 0.000002 -0.000000 30.393358 82.681981 -27.751731 -7.602932 75.214214 9.566167 -25.090145 86.548933 27.154262 -0.000003 0.000002 0.000002 -3.205973 8.737671 -17.100176 53.733173 3.265847 6.023641 -21.188842 2.287069 0.842551 -17.334308 -0.000003 -0.000010 0.000001 -0.000001 -0.000003 2.559889 -14.307555 22.048167 55.101571 2.532952 0.531074 -2.330620 9.902003 -3.213058 -29.119330 -2.218320 -0.166321 0.000001 0.000001 -0.000000 
-0.000006 0.013797 -0.952298 -19.625188 0.071498 -5.849309 -12.912807 -4.763708 0.088413 1.970173 0.825651 -0.165429 1.969413 0.826654 -0.172920 6.052965 -3.579364 -3.029298 16.508499 -1.913745 -10.445014 0.000000 -0.000001 0.000002 0.170360 -0.125694 -1.609560 4.510627 -65.659715 42.703603 1.855902 -2.387304 136.900118 -69.113865 -49.898599 -26.889118 -4.047075 2.343420 -7.651923 0.871111 0.491675 -15.927082 3.507642 -1.700196 -13.337462 -0.000005 0.000001 -0.000002 13.684882 -88.169136 7.360955 7.885314 -71.367404 -2.614159 16.466131 -76.937874 5.347705 0.000001 -0.000002 -0.000001 7.540932 -83.540576 2.493790 -5.985480 -76.620871 -14.039888 -17.870594 -87.745876 -26.074887 0.000000 -0.000002 0.000002 7.189403 -81.274415 0.172539 -17.408125 -77.899223 -23.882315 -158.655336 -77.286773 -164.372764 0.000000 0.000003 -0.000001 181.108231 -84.989854 174.402884 -11.742371 -68.211180 -16.278996 -20.426722 -78.201944 -24.978311 0.000001 0.000005 0.000001 0.594636 8.157775 -0.308405 24.290282 60.048073 -71.786156 1.881190 2.415453 -135.933769 -64.663259 50.744928 28.952082 -21.489129 -7.373404 -8.310075 9.621268 0.288443 30.108147 16.670286 -12.532856 40.107468 -0.000000 0.000001 -0.000006 159.673690 82.302106 -159.836781 9.319429 69.355476 -3.004464 154.888760 81.899535 -147.326593 -0.000002 0.000000 0.000002 22.763526 81.869905 -24.790668 16.259979 85.828758 -10.638651 29.857141 85.910010 -24.414156 0.000001 0.000004 -0.000002 14.342002 76.231612 -13.434334 11.199963 101.656554 -7.514093 19.744931 93.549071 -17.208231 0.000002 0.000002 0.000001 33.360290 83.305727 -30.888697 -8.159028 76.026808 10.130706 -33.031389 87.268207 35.109860 -0.000001 0.000002 0.000000 -1.280727 6.331296 -17.473569 52.664170 2.691399 6.215996 -23.361644 3.434350 1.295986 -14.753159 -0.000007 0.000002 0.000002 -0.000001 0.000002 0.532594 -19.322209 22.580865 59.332692 2.205931 0.953473 6.463528 10.607483 -6.399461 -36.766703 -2.160692 -0.331933 -0.000000 0.000000 -0.000002 
-0.000006 0.013797 -0.952298 -20.015974 2.035387 -5.758106 -12.167368 -3.589834 1.851300 1.943132 1.125932 0.016091 1.946785 1.117642 0.016127 6.211420 -3.235847 -2.888017 16.112539 -1.166567 -10.149423 -0.000001 0.000000 0.000001 0.207193 -0.758940 -1.324251 6.181496 -65.478660 43.378439 1.837023 -2.369899 137.399145 -69.163909 -49.939164 -27.240941 -4.055813 2.328356 -7.603186 0.963574 0.376223 -16.197380 3.519312 -1.726165 -13.326278 0.000001 0.000001 -0.000002 20.841069 -88.969423 14.412295 7.951975 -71.620886 -2.571531 16.791496 -77.245738 5.639947 0.000000 0.000001 -0.000000 8.048855 -84.418563 2.912560 -6.159877 -76.842497 -14.228070 -26.484122 -88.332050 -34.737581 0.000001 -0.000001 0.000001 7.418771 -81.928809 0.366050 -18.186851 -78.286474 -24.680477 -159.229673 -76.818140 -164.977318 0.000002 0.000001 0.000001 181.850617 -84.013014 175.102186 -11.806240 -68.291824 -16.345700 -20.280285 -78.137282 -24.828726 0.000002 0.000001 0.000000 0.407016 2.877341 -0.177709 33.973620 63.736634 -78.873119 1.886181 2.420218 -135.799624 -63.882370 53.105295 28.386118 -21.516243 -7.278976 -8.310669 9.699973 0.309177 30.303545 17.784064 -12.218191 41.775698 0.000002 0.000001 -0.000008 161.230727 81.759728 -161.319492 9.305772 69.323360 -2.992685 154.791580 81.925892 -147.231312 -0.000002 0.000002 0.000001 24.929391 82.580047 -26.912655 16.703923 85.950609 -11.077415 30.737931 86.023548 -25.288560 0.000003 0.000004 -0.000001 14.749662 76.626834 -13.811472 11.034398 101.879580 -7.343923 21.412590 93.252156 -18.885324 0.000000 0.000001 -0.000001 34.763942 83.556368 -32.232117 -8.792983 76.849027 10.773164 -37.014434 87.510986 39.098209 -0.000003 0.000004 0.000001 0.254787 3.556971 -17.544157 51.713913 1.996216 6.385304 -25.111189 4.593287 1.634484 -12.499674 -0.000005 -0.000009 0.000000 -0.000000 0.000000 -2.243371 -24.140995 22.241498 63.664699 1.574264 1.541475 14.049957 8.897207 -8.759169 -39.657308 -0.833907 -0.139633 0.000001 0.000001 -0.000001 
-0.000006 0.013797 -0.952298 -20.413702 3.890359 -5.788751 -11.383235 -1.868166 3.900233 1.922319 1.281780 0.273385 1.930707 1.262439 0.280283 6.476580 -2.697555 -2.692582 16.417642 -0.183703 -9.742436 -0.000000 -0.000000 0.000000 0.293001 -1.066626 -0.459282 6.878112 -65.792637 42.651212 1.808721 -2.344428 138.139319 -69.697422 -49.126590 -27.797444 -3.903827 2.211809 -7.808031 1.033269 0.321593 -16.471088 3.561532 -1.747324 -13.423387 -0.000002 0.000003 -0.000000 33.010909 -89.396159 26.523629 8.049430 -71.981724 -2.508208 17.190912 -77.604917 6.000631 -0.000003 -0.000002 0.000001 8.533730 -85.109088 3.385280 -6.348578 -77.073651 -14.431150 -31.721174 -88.546122 -39.994309 0.000002 0.000002 0.000002 7.528456 -82.249172 0.476156 -19.151820 -78.730204 -25.667859 -159.309791 -76.749832 -165.061849 0.000003 0.000001 0.000001 182.196526 -83.546232 175.506041 -11.730415 -68.195935 -16.266502 -20.064336 -78.040444 -24.608053 0.000003 0.000005 -0.000001 0.537431 0.110657 -2.769754 37.442045 65.468948 -79.452824 1.892822 2.426634 -135.619977 -62.732289 54.500275 28.169951 -21.280966 -7.521763 -8.167566 9.877554 0.356201 30.743983 18.249304 -12.084821 42.470509 0.000000 -0.000000 -0.000005 162.227757 81.339528 -162.123324 9.420992 69.591138 -3.092133 155.742206 81.659536 -148.162554 -0.000002 0.000002 0.000002 26.301751 82.932915 -28.067790 17.161269 86.068723 -11.529641 31.781936 86.149067 -26.325504 0.000001 0.000004 -0.000000 15.202797 77.026570 -14.203025 10.880115 102.095414 -7.185150 23.365324 92.964981 -20.847272 0.000004 0.000002 0.000000 35.780035 83.728229 -33.354471 -8.953826 77.042150 10.936006 -36.792440 87.498910 38.875811 0.000002 0.000002 -0.000001 1.388565 1.155426 -17.511581 50.983974 1.326013 6.533377 -26.061009 5.630929 2.122498 -11.163319 -0.000003 -0.000003 0.000001 -0.000001 0.000001 -5.109438 -27.806974 21.160742 67.159747 0.910863 1.986915 20.546850 6.618805 -9.142418 -39.999401 1.381918 0.195447 -0.000001 0.000000 -0.000003 
